# xmcd
#
# Track frame offsets:
# 183
# 26198
# 48490
# 72733
# 95663
# 119455
# 137833
# 167880
# 195883
# 218593
# 253468
# 272303
# 301228
# 320743
# 331888
#
# Disc length: 4667 seconds
#
#
# Revision: 0
# Processed by: cddbd v1.5.1PL0 Copyright (c) Steve Scherf et al.
# Submitted via: FreeRIP 2.92 
#
DISCID=e512390f
DTITLE=Bach, Johann Sebastian - Concertos for 2,3,4 Harpsichords and Strings
DYEAR=1998
DGENRE=
TTITLE0=Concerto No. 1 in D minor BWV 1063 - Allegro
TTITLE1=Concerto No. 1 in D minor BWV 1063 - Alla Siciliana
TTITLE2=Concerto No. 1 in D minor BWV 1063 - Allegro
TTITLE3=Concerto No. 1 in C minor BWV 1060 - Allegro
TTITLE4=Concerto No. 1 in C minor BWV 1060 - Adagio
TTITLE5=Concerto No. 1 in C minor BWV 1060 - Allegro
TTITLE6=Concerto No. 2 in C major BWV 1064 - Allegro
TTITLE7=Concerto No. 2 in C major BWV 1064 - Adagio
TTITLE8=Concerto No. 2 in C major BWV 1064 - Allegro
TTITLE9=Concerto No. 2 in C major BWV 1061 - Allegro maestoso
TTITLE10=Concerto No. 2 in C major BWV 1061 - Adagio ovvero largo
TTITLE11=Concerto No. 2 in C major BWV 1061 - Fuga
TTITLE12=Concerto in A minor BWV 1065 - Allegro
TTITLE13=Concerto in A minor BWV 1065 - Largo
TTITLE14=Concerto in A minor BWV 1065 - Allegro
EXTD=RTSI Orchestra, Bruno Maducci
EXTT0=
EXTT1=
EXTT2=
EXTT3=
EXTT4=
EXTT5=
EXTT6=
EXTT7=
EXTT8=
EXTT9=
EXTT10=
EXTT11=
EXTT12=
EXTT13=
EXTT14=
PLAYORDER=
